<?xml version="1.0" encoding="UTF-8"?>
<svg id="Layer_2" data-name="Layer 2" xmlns="http://www.w3.org/2000/svg" viewBox="0 0 531.58 150.16">
  <defs>
    <style>
      .cls-1 {
        fill: red;
      }
    </style>
  </defs>
  <g id="Layer_1-2" data-name="Layer 1">
    <g>
      <g>
        <path class="cls-1" d="M2.34,149.71c-.45,0-.67-.21-.67-.64v-9.06c0-.43.22-.64.67-.64.23,0,.45.13.67.38l6.45,7.9h-.34v-7.64c0-.43.22-.64.67-.64s.67.21.67.64v9.06c0,.43-.22.64-.67.64-.24,0-.47-.13-.67-.38l-6.45-7.9h.34v7.64c0,.43-.22.64-.67.64Z"/>
        <path class="cls-1" d="M9.8,149.84c-.28,0-.54-.14-.77-.43l-5.89-7.21v6.88c0,.49-.28.77-.8.77s-.8-.27-.8-.77v-9.06c0-.49.28-.77.8-.77.27,0,.53.14.77.42l5.89,7.22v-6.88c0-.49.28-.77.8-.77s.8.27.8.77v9.06c0,.49-.28.77-.8.77ZM3.14,141.8l6.08,7.45c.19.23.37.33.58.33.38,0,.55-.16.55-.52v-9.06c0-.36-.17-.52-.55-.52s-.55.16-.55.52v7.18l.48.58h-.73v-.49l-6.08-7.45c-.19-.22-.39-.33-.58-.33-.38,0-.55.16-.55.52v9.06c0,.36.17.52.55.52s.55-.16.55-.52v-7.18l-.48-.58h.73v.49Z"/>
      </g>
      <g>
        <path class="cls-1" d="M19.3,149.71c-.23,0-.4-.05-.51-.16s-.16-.27-.16-.48v-9.04c0-.22.06-.39.16-.49s.28-.15.51-.15.41.05.51.15.16.26.16.49v9.04c0,.22-.05.38-.16.48s-.28.16-.51.16Z"/>
        <path class="cls-1" d="M19.3,149.84c-.26,0-.46-.06-.6-.19-.13-.13-.2-.32-.2-.58v-9.04c0-.26.07-.45.2-.58.13-.12.33-.19.59-.19s.47.06.6.19c.13.13.2.32.2.58v9.04c0,.25-.07.45-.2.57-.13.13-.33.19-.6.19ZM19.3,139.52c-.2,0-.34.04-.42.12-.08.08-.12.21-.12.4v9.04c0,.18.04.31.13.39.08.08.23.12.42.12s.34-.04.43-.12c.08-.08.12-.21.12-.39v-9.04c0-.19-.04-.32-.12-.4-.08-.08-.23-.12-.43-.12Z"/>
      </g>
      <g>
        <path class="cls-1" d="M31.33,149.71c-1.22,0-2.13-.28-2.71-.83s-.88-1.42-.88-2.58v-3.51c0-1.17.29-2.04.87-2.6.58-.56,1.48-.83,2.7-.82h1.94c1,0,1.77.2,2.3.59s.84,1.02.92,1.86c.03.21-.01.38-.13.49-.12.11-.29.17-.51.17-.41,0-.64-.21-.71-.64-.05-.47-.22-.78-.51-.95-.29-.16-.74-.24-1.37-.24h-1.94c-.57,0-1.01.06-1.34.18-.32.13-.55.35-.69.66-.14.31-.2.74-.2,1.29v3.51c0,.54.07.97.2,1.28.14.31.37.53.69.66.33.13.78.19,1.35.19h1.92c.5,0,.89-.05,1.17-.16.28-.1.48-.29.59-.55.11-.26.17-.64.17-1.12v-.72l-1.25-.02c-.45,0-.67-.21-.67-.64s.22-.64.67-.64h1.92c.45.01.67.23.67.66v1.36c0,1.08-.26,1.87-.79,2.37-.53.5-1.36.74-2.48.74h-1.92Z"/>
        <path class="cls-1" d="M33.25,149.84h-1.92c-1.25,0-2.19-.29-2.8-.87-.61-.58-.92-1.48-.92-2.67v-3.51c0-1.2.31-2.11.91-2.69.59-.57,1.51-.85,2.73-.85h2c1.03,0,1.83.21,2.38.62.56.41.88,1.07.97,1.95.04.25-.02.45-.17.59-.14.13-.34.2-.6.2-.47,0-.76-.26-.83-.75-.05-.43-.2-.71-.45-.86-.27-.15-.71-.23-1.31-.23h-1.94c-.56,0-.98.05-1.29.17-.29.12-.5.31-.62.59-.13.3-.19.71-.19,1.24v3.51c0,.52.07.94.19,1.23.12.28.33.48.63.59.31.12.75.19,1.3.19h1.92c.48,0,.86-.05,1.12-.15.25-.09.42-.25.52-.48.11-.25.16-.61.16-1.07v-.59h-1.13c-.51-.01-.8-.29-.8-.78s.28-.77.8-.77h1.93c.51.01.8.29.8.78v1.36c0,1.11-.28,1.94-.83,2.46-.55.52-1.41.78-2.56.78ZM31.25,139.5c-1.15,0-2.01.26-2.56.79-.55.53-.84,1.37-.84,2.5v3.51c0,1.12.28,1.96.84,2.49.56.53,1.44.8,2.63.8h1.92c1.08,0,1.89-.24,2.39-.71.5-.47.75-1.24.75-2.28v-1.36c0-.36-.17-.52-.55-.52h-1.93c-.38-.01-.55.14-.55.5s.17.51.55.51l1.38.02v.84c0,.5-.06.89-.18,1.17-.13.3-.35.51-.66.62-.3.11-.69.16-1.21.16h-1.92c-.59,0-1.06-.07-1.39-.2-.36-.14-.61-.38-.76-.72-.14-.33-.22-.77-.22-1.33v-3.51c0-.56.07-1.01.21-1.34.15-.34.41-.59.76-.73.34-.13.81-.19,1.38-.19h1.94c.65,0,1.12.08,1.43.26.32.18.51.53.57,1.04.05.36.24.53.58.53.19,0,.33-.04.43-.13.09-.08.12-.21.09-.38-.08-.82-.38-1.41-.87-1.78-.5-.38-1.25-.57-2.23-.57h-2Z"/>
      </g>
      <g>
        <path class="cls-1" d="M44.81,149.71c-.18,0-.33-.06-.47-.19-.14-.13-.2-.28-.2-.45v-9.06c0-.17.07-.32.2-.45.14-.13.29-.19.47-.19s.33.06.47.19.2.28.2.45v3.83h6.54v-3.83c0-.17.07-.32.2-.45.13-.13.29-.19.47-.19s.33.06.47.19c.14.13.2.28.2.45v9.06c0,.17-.07.32-.2.45-.14.13-.29.19-.47.19s-.34-.06-.47-.19c-.13-.13-.2-.28-.2-.45v-3.95h-6.54v3.95c0,.17-.07.32-.2.45s-.29.19-.47.19Z"/>
        <path class="cls-1" d="M52.7,149.84c-.22,0-.4-.08-.56-.23-.16-.15-.24-.33-.24-.54v-3.82h-6.29v3.82c0,.2-.08.38-.24.54-.32.3-.79.3-1.11,0-.16-.15-.24-.33-.24-.54v-9.06c0-.2.08-.38.24-.54.32-.3.79-.3,1.11,0,.16.15.24.33.24.54v3.7h6.29v-3.7c0-.2.08-.38.24-.54.31-.3.79-.31,1.12,0,.16.15.24.33.24.54v9.06c0,.2-.08.38-.24.54-.16.15-.35.23-.55.23ZM45.36,145h6.79v4.07c0,.13.05.25.16.36.22.21.54.22.77,0,.11-.11.17-.22.17-.36v-9.06c0-.13-.05-.25-.17-.36-.23-.22-.55-.21-.77,0-.11.11-.16.22-.16.36v3.95h-6.79v-3.95c0-.13-.05-.25-.17-.36-.23-.21-.54-.21-.77,0-.11.11-.17.22-.17.36v9.06c0,.13.05.25.17.36.23.21.54.21.77,0,.11-.11.17-.22.17-.36v-4.07Z"/>
      </g>
      <g>
        <path class="cls-1" d="M64.78,149.71c-.22,0-.39-.05-.51-.16s-.17-.27-.17-.48v-8.4h-3.11c-.22,0-.39-.05-.5-.16s-.17-.27-.17-.48.06-.37.17-.48c.11-.11.28-.16.5-.16h7.57c.22,0,.39.05.51.16.11.11.17.27.17.48s-.06.37-.17.48-.28.16-.51.16h-3.11v8.4c0,.2-.06.36-.17.47-.12.11-.28.17-.5.17Z"/>
        <path class="cls-1" d="M64.78,149.84c-.26,0-.46-.07-.59-.19-.14-.13-.21-.32-.21-.57v-8.28h-2.99c-.26,0-.45-.07-.59-.19-.14-.13-.21-.32-.21-.57s.07-.44.21-.57c.13-.13.33-.19.59-.19h7.57c.26,0,.46.07.59.19.14.13.21.32.21.57s-.07.44-.21.57c-.14.13-.33.19-.59.19h-2.99v8.28c0,.24-.07.43-.21.56-.14.13-.34.2-.59.2ZM60.99,139.52c-.19,0-.33.04-.42.12-.09.08-.13.21-.13.39s.04.31.13.39c.09.08.23.13.42.13h3.24v8.53c0,.18.04.31.13.39.09.08.23.13.42.13s.32-.04.41-.13c.09-.09.13-.21.13-.38v-8.53h3.24c.19,0,.33-.04.42-.13.09-.08.13-.21.13-.39s-.04-.31-.13-.39c-.09-.08-.23-.13-.42-.13h-7.57Z"/>
      </g>
      <g>
        <path class="cls-1" d="M76.86,149.71c-.45,0-.67-.21-.67-.64v-9.06c0-.43.22-.64.67-.64s.67.21.67.64v8.42h4.44c.45,0,.67.21.67.64s-.22.64-.67.64h-5.12Z"/>
        <path class="cls-1" d="M81.97,149.84h-5.12c-.52,0-.8-.27-.8-.77v-9.06c0-.49.28-.77.8-.77s.8.27.8.77v8.29h4.32c.52,0,.8.27.8.77s-.28.77-.8.77ZM76.86,139.5c-.38,0-.55.16-.55.52v9.06c0,.36.17.52.55.52h5.12c.38,0,.55-.16.55-.52s-.17-.52-.55-.52h-4.57v-8.54c0-.36-.17-.52-.55-.52Z"/>
      </g>
      <g>
        <path class="cls-1" d="M90.35,149.71c-.23,0-.4-.05-.51-.16s-.16-.27-.16-.48v-9.04c0-.22.06-.39.16-.49s.28-.15.51-.15.41.05.51.15.16.26.16.49v9.04c0,.22-.05.38-.16.48s-.28.16-.51.16Z"/>
        <path class="cls-1" d="M90.35,149.84c-.26,0-.46-.06-.6-.19-.13-.13-.2-.32-.2-.58v-9.04c0-.26.07-.45.2-.58.13-.12.33-.19.59-.19s.47.06.6.19c.13.13.2.32.2.58v9.04c0,.25-.07.45-.2.57-.13.13-.33.19-.6.19ZM90.35,139.52c-.2,0-.34.04-.42.12-.08.08-.12.21-.12.4v9.04c0,.18.04.31.13.39.08.08.23.12.42.12s.34-.04.43-.12c.08-.08.12-.21.12-.39v-9.04c0-.19-.04-.32-.12-.4-.08-.08-.23-.12-.43-.12Z"/>
      </g>
      <g>
        <path class="cls-1" d="M99.84,149.71c-.45,0-.67-.21-.67-.64v-9.06c0-.43.22-.64.67-.64h5.9c.21,0,.37.06.49.17.12.11.18.27.18.47,0,.43-.22.64-.67.64h-5.23v3.2h3.22c.45,0,.67.21.67.64s-.22.64-.67.64h-3.22v3.93c0,.43-.22.64-.67.64Z"/>
        <path class="cls-1" d="M99.84,149.84c-.52,0-.8-.27-.8-.77v-9.06c0-.49.28-.77.8-.77h5.9c.24,0,.44.07.58.21.15.14.22.33.22.56,0,.49-.28.76-.8.76h-5.1v2.95h3.1c.52,0,.8.27.8.77s-.28.77-.8.77h-3.1v3.81c0,.49-.28.77-.8.77ZM99.84,139.5c-.38,0-.55.16-.55.52v9.06c0,.36.17.52.55.52s.55-.16.55-.52v-4.06h3.35c.38,0,.55-.16.55-.52s-.17-.52-.55-.52h-3.35v-3.45h5.35c.38,0,.55-.16.55-.51,0-.16-.05-.29-.14-.38-.1-.09-.23-.14-.41-.14h-5.9Z"/>
      </g>
      <g>
        <path class="cls-1" d="M113.57,149.71c-.45,0-.67-.21-.67-.64v-9.06c0-.43.22-.64.67-.64h5.76c.45,0,.67.21.67.64s-.22.64-.67.64h-5.08v3.2h3.19c.45,0,.67.21.67.64s-.22.64-.67.64h-3.19v3.29h5.08c.45,0,.67.21.67.64s-.22.64-.67.64h-5.76Z"/>
        <path class="cls-1" d="M119.33,149.84h-5.76c-.52,0-.8-.27-.8-.77v-9.06c0-.49.28-.77.8-.77h5.76c.52,0,.8.27.8.77s-.28.76-.8.76h-4.96v2.95h3.07c.52,0,.8.27.8.77s-.28.77-.8.77h-3.07v3.04h4.96c.52,0,.8.27.8.77s-.28.77-.8.77ZM113.57,139.5c-.38,0-.55.16-.55.52v9.06c0,.36.17.52.55.52h5.76c.38,0,.55-.16.55-.52s-.17-.52-.55-.52h-5.21v-3.54h3.32c.38,0,.55-.16.55-.52s-.17-.52-.55-.52h-3.32v-3.45h5.21c.38,0,.55-.16.55-.51s-.17-.52-.55-.52h-5.76Z"/>
      </g>
      <g>
        <path class="cls-1" d="M140.1,150.03c-1.22,0-2.13-.28-2.71-.83-.58-.55-.87-1.41-.87-2.57,0-.82.14-1.48.42-2,.28-.51.71-.88,1.3-1.11.21-.09.4-.08.57.01.17.1.28.24.31.44.04.2.01.36-.09.48-.1.12-.25.23-.44.31-.26.14-.45.36-.56.65-.11.29-.16.69-.16,1.21,0,.54.07.97.2,1.28s.36.52.69.65c.32.13.77.19,1.34.19h.51c.57,0,1.01-.06,1.34-.19.32-.13.55-.35.69-.66s.2-.73.2-1.27v-.53c0-.43.22-.64.67-.64s.67.21.67.64v.53c0,1.16-.29,2.02-.87,2.57-.58.55-1.48.83-2.7.83h-.51ZM145.46,149.36c-.29.33-.6.34-.95.05l-5.41-4.57c-.38-.32-.68-.6-.89-.86-.21-.26-.36-.52-.45-.79-.09-.27-.13-.57-.13-.91,0-.85.22-1.48.65-1.9.43-.42,1.1-.63,2-.63h.4c.77,0,1.37.15,1.8.45.43.3.7.77.82,1.39.03.22-.02.38-.14.5-.12.11-.29.17-.52.17s-.37-.05-.48-.16c-.1-.11-.19-.26-.24-.46-.06-.24-.19-.41-.38-.49-.19-.08-.47-.12-.86-.12h-.4c-.5,0-.84.08-1.03.25-.18.17-.27.5-.27,1,0,.21.03.39.08.54.05.15.15.31.29.47.14.16.36.37.64.61l5.41,4.56c.34.29.35.59.05.92Z"/>
        <path class="cls-1" d="M140.62,150.16h-.51c-1.25,0-2.19-.29-2.79-.86-.6-.57-.91-1.47-.91-2.66,0-.84.15-1.53.44-2.06.23-.42.56-.75.98-.99-.06-.12-.12-.24-.16-.37-.09-.28-.13-.6-.13-.95,0-.88.23-1.55.69-1.99.45-.44,1.16-.66,2.08-.66h.4c.79,0,1.42.16,1.87.48.45.32.75.82.87,1.47.03.27-.03.47-.18.61-.14.14-.35.21-.6.21s-.44-.07-.57-.2c-.12-.12-.21-.29-.28-.52-.06-.21-.16-.34-.31-.41-.17-.07-.44-.11-.81-.11h-.4c-.47,0-.79.07-.94.22-.15.14-.23.45-.23.91,0,.19.02.36.07.5.05.13.14.28.27.43.14.16.35.36.63.6l2.64,2.22c.03-.44.31-.68.8-.68.52,0,.8.27.8.77v.53c0,.24-.01.48-.04.7l1.21,1.02c.2.17.3.35.31.54,0,.19-.07.37-.25.56-.33.37-.73.39-1.12.06l-.7-.59c-.1.14-.21.27-.33.38-.6.57-1.54.87-2.79.87ZM137.94,143.8c-.38.22-.68.52-.89.89-.27.49-.41,1.14-.41,1.94,0,1.12.28,1.96.83,2.48.55.53,1.44.79,2.62.79h.51c1.18,0,2.06-.27,2.62-.8.11-.11.22-.23.31-.36l-.83-.7c-.15.29-.39.5-.71.63-.34.13-.8.2-1.38.2h-.51c-.58,0-1.05-.07-1.39-.2-.35-.14-.61-.38-.75-.72-.14-.32-.21-.77-.21-1.33s.06-.95.17-1.26c.12-.32.33-.56.61-.71.04-.02.08-.04.12-.06-.21-.2-.39-.38-.53-.55-.07-.08-.13-.17-.18-.25ZM143.87,148.7l.73.62c.29.25.53.24.77-.03h0c.13-.14.19-.26.18-.38,0-.12-.08-.24-.22-.36l-1.09-.92c-.07.41-.2.77-.37,1.08ZM138.85,144.78c-.06.04-.13.08-.2.11-.23.13-.39.32-.49.58-.1.27-.16.67-.16,1.17,0,.52.06.94.19,1.23.12.28.32.47.62.58.31.12.74.18,1.3.18h.51c.55,0,.98-.06,1.29-.19.28-.11.48-.3.61-.56l-3.49-2.95c-.06-.05-.12-.1-.18-.15ZM142.81,147.8l.86.73c.17-.31.28-.68.34-1.1l-1.04-.88v.08c0,.47-.05.87-.16,1.17ZM139.05,144.62s.09.08.14.12l3.42,2.89c.08-.26.11-.6.11-1v-.29l-2.79-2.36c-.29-.25-.51-.46-.65-.62-.15-.17-.26-.35-.32-.51-.06-.16-.08-.36-.08-.58,0-.55.1-.9.31-1.1.21-.19.57-.28,1.11-.28h.4c.4,0,.7.04.91.13.22.1.37.29.45.57.05.18.12.32.21.41.08.08.21.12.39.12.19,0,.33-.05.43-.14.09-.09.12-.21.1-.39-.11-.58-.37-1.02-.77-1.3-.4-.29-.98-.43-1.72-.43h-.4c-.86,0-1.5.2-1.91.59-.41.39-.61,1-.61,1.81,0,.33.04.62.12.87.04.11.08.22.14.33.05-.02.11-.05.16-.07.24-.1.47-.09.68.02.2.12.33.29.38.53.05.23,0,.43-.12.58-.02.03-.05.05-.08.08ZM142.97,146.22l1.08.91c.01-.16.02-.33.02-.5v-.53c0-.36-.17-.52-.55-.52s-.55.16-.55.52v.12ZM138.17,143.69c.05.07.1.14.15.2.14.17.32.36.54.56.03-.02.05-.05.08-.08.08-.09.1-.21.06-.37-.03-.17-.11-.28-.25-.36-.14-.08-.29-.08-.46,0-.04.02-.08.03-.12.05Z"/>
      </g>
      <g>
        <path class="cls-1" d="M162.99,149.71c-.45,0-.67-.21-.67-.64v-9.06c0-.43.22-.64.67-.64h5.76c.45,0,.67.21.67.64s-.22.64-.67.64h-5.08v3.2h3.19c.45,0,.67.21.67.64s-.22.64-.67.64h-3.19v3.29h5.08c.45,0,.67.21.67.64s-.22.64-.67.64h-5.76Z"/>
        <path class="cls-1" d="M168.75,149.84h-5.76c-.52,0-.8-.27-.8-.77v-9.06c0-.49.28-.77.8-.77h5.76c.52,0,.8.27.8.77s-.28.76-.8.76h-4.96v2.95h3.07c.52,0,.8.27.8.77s-.28.77-.8.77h-3.07v3.04h4.96c.52,0,.8.27.8.77s-.28.77-.8.77ZM162.99,139.5c-.38,0-.55.16-.55.52v9.06c0,.36.17.52.55.52h5.76c.38,0,.55-.16.55-.52s-.17-.52-.55-.52h-5.21v-3.54h3.32c.38,0,.55-.16.55-.52s-.17-.52-.55-.52h-3.32v-3.45h5.21c.38,0,.55-.16.55-.51s-.17-.52-.55-.52h-5.76Z"/>
      </g>
      <g>
        <path class="cls-1" d="M177.48,149.71c-.45,0-.67-.21-.67-.64v-9.06c0-.43.22-.64.67-.64.23,0,.45.13.67.38l6.45,7.9h-.34v-7.64c0-.43.22-.64.67-.64s.67.21.67.64v9.06c0,.43-.22.64-.67.64-.24,0-.47-.13-.67-.38l-6.45-7.9h.34v7.64c0,.43-.22.64-.67.64Z"/>
        <path class="cls-1" d="M184.94,149.84c-.28,0-.54-.14-.77-.43l-5.89-7.21v6.88c0,.49-.28.77-.8.77s-.8-.27-.8-.77v-9.06c0-.49.28-.77.8-.77.27,0,.53.14.77.42l5.89,7.22v-6.88c0-.49.28-.77.8-.77s.8.27.8.77v9.06c0,.49-.28.77-.8.77ZM178.28,141.8l6.08,7.45c.19.23.37.33.58.33.38,0,.55-.16.55-.52v-9.06c0-.36-.17-.52-.55-.52s-.55.16-.55.52v7.18l.48.58h-.73v-.49l-6.08-7.45c-.19-.22-.39-.33-.58-.33-.38,0-.55.16-.55.52v9.06c0,.36.17.52.55.52s.55-.16.55-.52v-7.18l-.48-.58h.73v.49Z"/>
      </g>
      <g>
        <path class="cls-1" d="M197.01,149.71c-.22,0-.39-.05-.51-.16s-.17-.27-.17-.48v-8.4h-3.11c-.22,0-.39-.05-.5-.16s-.17-.27-.17-.48.06-.37.17-.48c.11-.11.28-.16.5-.16h7.57c.22,0,.39.05.51.16.11.11.17.27.17.48s-.06.37-.17.48-.28.16-.51.16h-3.11v8.4c0,.2-.06.36-.17.47-.12.11-.28.17-.5.17Z"/>
        <path class="cls-1" d="M197.01,149.84c-.26,0-.46-.07-.59-.19-.14-.13-.21-.32-.21-.57v-8.28h-2.99c-.26,0-.45-.07-.59-.19-.14-.13-.21-.32-.21-.57s.07-.44.21-.57c.13-.13.33-.19.59-.19h7.57c.26,0,.46.07.59.19.14.13.21.32.21.57s-.07.44-.21.57c-.14.13-.33.19-.59.19h-2.99v8.28c0,.24-.07.43-.21.56-.14.13-.34.2-.59.2ZM193.23,139.52c-.19,0-.33.04-.42.12-.09.08-.13.21-.13.39s.04.31.13.39c.09.08.23.13.42.13h3.24v8.53c0,.18.04.31.13.39.09.08.23.13.42.13s.32-.04.41-.13c.09-.09.13-.21.13-.38v-8.53h3.24c.19,0,.33-.04.42-.13.09-.08.13-.21.13-.39s-.04-.31-.13-.39c-.09-.08-.23-.13-.42-.13h-7.57Z"/>
      </g>
      <g>
        <path class="cls-1" d="M209.09,149.71c-.45,0-.67-.21-.67-.64v-9.06c0-.43.22-.64.67-.64h5.76c.45,0,.67.21.67.64s-.22.64-.67.64h-5.08v3.2h3.19c.45,0,.67.21.67.64s-.22.64-.67.64h-3.19v3.29h5.08c.45,0,.67.21.67.64s-.22.64-.67.64h-5.76Z"/>
        <path class="cls-1" d="M214.85,149.84h-5.76c-.52,0-.8-.27-.8-.77v-9.06c0-.49.28-.77.8-.77h5.76c.52,0,.8.27.8.77s-.28.76-.8.76h-4.96v2.95h3.07c.52,0,.8.27.8.77s-.28.77-.8.77h-3.07v3.04h4.96c.52,0,.8.27.8.77s-.28.77-.8.77ZM209.09,139.5c-.38,0-.55.16-.55.52v9.06c0,.36.17.52.55.52h5.76c.38,0,.55-.16.55-.52s-.17-.52-.55-.52h-5.21v-3.54h3.32c.38,0,.55-.16.55-.52s-.17-.52-.55-.52h-3.32v-3.45h5.21c.38,0,.55-.16.55-.51s-.17-.52-.55-.52h-5.76Z"/>
      </g>
      <g>
        <path class="cls-1" d="M229.9,149.74c-.18.11-.34.14-.51.1-.16-.04-.3-.15-.41-.31l-2.49-3.93h-2.25v3.48c0,.43-.22.64-.67.64s-.67-.21-.67-.64v-9.06c0-.43.22-.64.67-.64h3.75c.98,0,1.73.25,2.25.74.52.5.78,1.21.78,2.14v.46c0,.81-.2,1.45-.59,1.93-.4.48-.97.78-1.72.9l2.1,3.33c.2.36.12.65-.26.87ZM224.25,144.32h3.08c.61,0,1.04-.12,1.3-.37s.38-.66.38-1.24v-.46c0-.57-.13-.98-.38-1.23-.26-.25-.69-.37-1.3-.37h-3.08v3.66Z"/>
        <path class="cls-1" d="M229.53,149.98c-.06,0-.11,0-.17-.02-.19-.05-.35-.17-.48-.36l-2.45-3.88h-2.05v3.35c0,.49-.28.77-.8.77s-.8-.27-.8-.77v-9.06c0-.49.28-.77.8-.77h3.75c1.01,0,1.79.26,2.34.78.54.52.82,1.27.82,2.23v.46c0,.83-.21,1.51-.62,2.01-.38.46-.92.77-1.61.91l2,3.17c.24.42.13.79-.3,1.04-.15.09-.29.13-.44.13ZM224.13,145.47h2.44l.04.06,2.49,3.93c.09.14.2.22.33.26.13.03.26,0,.41-.08h0c.32-.19.38-.41.21-.7l-2.2-3.49.19-.03c.71-.11,1.27-.4,1.64-.85.38-.45.57-1.08.57-1.85v-.46c0-.89-.25-1.58-.74-2.05-.5-.47-1.22-.71-2.16-.71h-3.75c-.38,0-.55.16-.55.52v9.06c0,.36.17.52.55.52s.55-.16.55-.52v-3.6ZM227.33,144.44h-3.2v-3.91h3.2c.64,0,1.11.14,1.39.41.28.27.42.71.42,1.32v.46c0,.61-.14,1.06-.42,1.33-.28.27-.75.4-1.39.4ZM224.38,144.19h2.95c.57,0,.98-.11,1.21-.33.23-.22.35-.6.35-1.14v-.46c0-.54-.12-.92-.35-1.14-.23-.22-.64-.33-1.21-.33h-2.95v3.41Z"/>
      </g>
      <g>
        <path class="cls-1" d="M240.68,149.71c-.22,0-.39-.05-.51-.16s-.17-.27-.17-.48v-8.4h-3.11c-.22,0-.39-.05-.5-.16s-.17-.27-.17-.48.06-.37.17-.48c.11-.11.28-.16.5-.16h7.57c.22,0,.39.05.51.16.11.11.17.27.17.48s-.06.37-.17.48-.28.16-.51.16h-3.11v8.4c0,.2-.06.36-.17.47-.12.11-.28.17-.5.17Z"/>
        <path class="cls-1" d="M240.68,149.84c-.26,0-.46-.07-.59-.19-.14-.13-.21-.32-.21-.57v-8.28h-2.99c-.26,0-.45-.07-.59-.19-.14-.13-.21-.32-.21-.57s.07-.44.21-.57c.13-.13.33-.19.59-.19h7.57c.26,0,.46.07.59.19.14.13.21.32.21.57s-.07.44-.21.57c-.14.13-.33.19-.59.19h-2.99v8.28c0,.24-.07.43-.21.56-.14.13-.34.2-.59.2ZM236.89,139.52c-.19,0-.33.04-.42.12-.09.08-.13.21-.13.39s.04.31.13.39c.09.08.23.13.42.13h3.24v8.53c0,.18.04.31.13.39.09.08.23.13.42.13s.32-.04.41-.13c.09-.09.13-.21.13-.38v-8.53h3.24c.19,0,.33-.04.42-.13.09-.08.13-.21.13-.39s-.04-.31-.13-.39c-.09-.08-.23-.13-.42-.13h-7.57Z"/>
      </g>
      <g>
        <path class="cls-1" d="M250.28,149.65c-.43-.16-.56-.44-.38-.84l3.82-8.94c.16-.33.41-.5.75-.5h.03c.35.02.58.18.71.5l3.88,8.94c.17.4.05.68-.37.84-.42.16-.72.04-.88-.35l-.87-2h-5l-.83,2c-.17.4-.45.51-.87.35ZM252.51,146.02h3.91l-2-4.62-1.92,4.62Z"/>
        <path class="cls-1" d="M250.61,149.85c-.11,0-.24-.03-.37-.08-.25-.09-.42-.23-.49-.41-.07-.17-.06-.37.04-.6l3.82-8.94c.18-.39.48-.58.87-.58h.03c.41.02.68.21.82.58l3.88,8.93c.1.23.11.43.04.6-.07.17-.23.31-.48.4-.49.18-.85.04-1.04-.42l-.83-1.92h-4.83l-.79,1.92c-.14.33-.36.5-.66.5ZM254.5,139.5h-.03c-.29,0-.5.14-.64.43l-3.82,8.93c-.07.16-.08.3-.04.4.05.11.17.2.35.27h0c.35.14.57.05.71-.28l.86-2.07h5.16l.9,2.07c.14.33.36.42.72.28.18-.07.29-.16.33-.26.05-.11.03-.24-.04-.41l-3.88-8.93c-.11-.28-.3-.41-.6-.43ZM256.61,146.15h-4.29l2.1-5.06,2.19,5.06ZM252.69,145.9h3.54l-1.8-4.17-1.73,4.17Z"/>
      </g>
      <g>
        <path class="cls-1" d="M266.97,149.71c-.23,0-.4-.05-.51-.16s-.16-.27-.16-.48v-9.04c0-.22.06-.39.16-.49s.28-.15.51-.15.41.05.51.15.16.26.16.49v9.04c0,.22-.05.38-.16.48s-.28.16-.51.16Z"/>
        <path class="cls-1" d="M266.97,149.84c-.26,0-.46-.06-.6-.19-.13-.13-.2-.32-.2-.58v-9.04c0-.26.07-.45.2-.58.13-.12.33-.19.59-.19s.47.06.6.19c.13.13.2.32.2.58v9.04c0,.25-.07.45-.2.57-.13.13-.33.19-.6.19ZM266.97,139.52c-.2,0-.34.04-.42.12-.08.08-.12.21-.12.4v9.04c0,.18.04.31.13.39.08.08.23.12.42.12s.34-.04.43-.12c.08-.08.12-.21.12-.39v-9.04c0-.19-.04-.32-.12-.4-.08-.08-.23-.12-.43-.12Z"/>
      </g>
      <g>
        <path class="cls-1" d="M276.46,149.71c-.45,0-.67-.21-.67-.64v-9.06c0-.43.22-.64.67-.64.23,0,.45.13.67.38l6.45,7.9h-.34v-7.64c0-.43.22-.64.67-.64s.67.21.67.64v9.06c0,.43-.22.64-.67.64-.24,0-.47-.13-.67-.38l-6.45-7.9h.34v7.64c0,.43-.22.64-.67.64Z"/>
        <path class="cls-1" d="M283.92,149.84c-.28,0-.54-.14-.77-.43l-5.89-7.21v6.88c0,.49-.28.77-.8.77s-.8-.27-.8-.77v-9.06c0-.49.28-.77.8-.77.27,0,.53.14.77.42l5.89,7.22v-6.88c0-.49.28-.77.8-.77s.8.27.8.77v9.06c0,.49-.28.77-.8.77ZM277.26,141.8l6.08,7.45c.19.23.37.33.58.33.38,0,.55-.16.55-.52v-9.06c0-.36-.17-.52-.55-.52s-.55.16-.55.52v7.18l.48.58h-.73v-.49l-6.08-7.45c-.19-.22-.39-.33-.58-.33-.38,0-.55.16-.55.52v9.06c0,.36.17.52.55.52s.55-.16.55-.52v-7.18l-.48-.58h.73v.49Z"/>
      </g>
      <g>
        <path class="cls-1" d="M293.42,149.71c-.45,0-.67-.21-.67-.64v-9.06c0-.43.22-.64.67-.64.29,0,.54.14.74.41l3.79,5.41-.29.05,3.82-5.46c.18-.28.45-.41.82-.41s.55.21.55.64v9.06c0,.43-.22.64-.67.64s-.67-.21-.67-.64v-7.78l.42.14-3.37,4.71c-.2.27-.47.41-.82.41-.24,0-.46-.14-.66-.41l-3.37-4.71.4.11v7.53c0,.43-.22.64-.67.64Z"/>
        <path class="cls-1" d="M302.16,149.84c-.52,0-.8-.27-.8-.77v-6.67l-2.73,3.81c-.22.31-.53.46-.92.46-.28,0-.54-.16-.76-.46l-2.74-3.83v6.69c0,.49-.28.77-.8.77s-.8-.27-.8-.77v-9.06c0-.49.28-.77.8-.77.34,0,.62.16.84.46l3.56,5.08,3.55-5.08c.2-.31.51-.47.92-.47.25,0,.67.1.67.77v9.06c0,.49-.28.77-.8.77ZM301.61,142.06v7.02c0,.36.17.52.55.52s.55-.16.55-.52v-9.06c0-.46-.22-.52-.42-.52-.32,0-.56.12-.71.36l-3.61,5.16.19.28-.78.12.28-.4-3.61-5.16c-.17-.24-.38-.36-.64-.36-.38,0-.55.16-.55.52v9.06c0,.36.17.52.55.52s.55-.16.55-.52v-7.04l-.58-.81.83.22v.51l2.94,4.12c.17.24.36.36.56.36.31,0,.54-.12.72-.36l2.93-4.09v-.85l.74.25-.49.69ZM301.61,141.47v.16l.09-.13-.09-.03Z"/>
      </g>
      <g>
        <path class="cls-1" d="M311.65,149.71c-.45,0-.67-.21-.67-.64v-9.06c0-.43.22-.64.67-.64h5.76c.45,0,.67.21.67.64s-.22.64-.67.64h-5.08v3.2h3.19c.45,0,.67.21.67.64s-.22.64-.67.64h-3.19v3.29h5.08c.45,0,.67.21.67.64s-.22.64-.67.64h-5.76Z"/>
        <path class="cls-1" d="M317.41,149.84h-5.76c-.52,0-.8-.27-.8-.77v-9.06c0-.49.28-.77.8-.77h5.76c.52,0,.8.27.8.77s-.28.76-.8.76h-4.96v2.95h3.07c.52,0,.8.27.8.77s-.28.77-.8.77h-3.07v3.04h4.96c.52,0,.8.27.8.77s-.28.77-.8.77ZM311.65,139.5c-.38,0-.55.16-.55.52v9.06c0,.36.17.52.55.52h5.76c.38,0,.55-.16.55-.52s-.17-.52-.55-.52h-5.21v-3.54h3.32c.38,0,.55-.16.55-.52s-.17-.52-.55-.52h-3.32v-3.45h5.21c.38,0,.55-.16.55-.51s-.17-.52-.55-.52h-5.76Z"/>
      </g>
      <g>
        <path class="cls-1" d="M326.14,149.71c-.45,0-.67-.21-.67-.64v-9.06c0-.43.22-.64.67-.64.23,0,.45.13.67.38l6.45,7.9h-.34v-7.64c0-.43.22-.64.67-.64s.67.21.67.64v9.06c0,.43-.22.64-.67.64-.24,0-.47-.13-.67-.38l-6.45-7.9h.34v7.64c0,.43-.22.64-.67.64Z"/>
        <path class="cls-1" d="M333.6,149.84c-.28,0-.54-.14-.77-.43l-5.89-7.21v6.88c0,.49-.28.77-.8.77s-.8-.27-.8-.77v-9.06c0-.49.28-.77.8-.77.27,0,.53.14.77.42l5.89,7.22v-6.88c0-.49.28-.77.8-.77s.8.27.8.77v9.06c0,.49-.28.77-.8.77ZM326.94,141.8l6.08,7.45c.19.23.37.33.58.33.38,0,.55-.16.55-.52v-9.06c0-.36-.17-.52-.55-.52s-.55.16-.55.52v7.18l.48.58h-.73v-.49l-6.08-7.45c-.19-.22-.39-.33-.58-.33-.38,0-.55.16-.55.52v9.06c0,.36.17.52.55.52s.55-.16.55-.52v-7.18l-.48-.58h.73v.49Z"/>
      </g>
      <g>
        <path class="cls-1" d="M345.68,149.71c-.22,0-.39-.05-.51-.16s-.17-.27-.17-.48v-8.4h-3.11c-.22,0-.39-.05-.5-.16s-.17-.27-.17-.48.06-.37.17-.48c.11-.11.28-.16.5-.16h7.57c.22,0,.39.05.51.16.11.11.17.27.17.48s-.06.37-.17.48-.28.16-.51.16h-3.11v8.4c0,.2-.06.36-.17.47-.12.11-.28.17-.5.17Z"/>
        <path class="cls-1" d="M345.68,149.84c-.26,0-.46-.07-.59-.19-.14-.13-.21-.32-.21-.57v-8.28h-2.99c-.26,0-.45-.07-.59-.19-.14-.13-.21-.32-.21-.57s.07-.44.21-.57c.13-.13.33-.19.59-.19h7.57c.26,0,.46.07.59.19.14.13.21.32.21.57s-.07.44-.21.57c-.14.13-.33.19-.59.19h-2.99v8.28c0,.24-.07.43-.21.56-.14.13-.34.2-.59.2ZM341.89,139.52c-.19,0-.33.04-.42.12-.09.08-.13.21-.13.39s.04.31.13.39c.09.08.23.13.42.13h3.24v8.53c0,.18.04.31.13.39.09.08.23.13.42.13s.32-.04.41-.13c.09-.09.13-.21.13-.38v-8.53h3.24c.19,0,.33-.04.42-.13.09-.08.13-.21.13-.39s-.04-.31-.13-.39c-.09-.08-.23-.13-.42-.13h-7.57Z"/>
      </g>
      <g>
        <path class="cls-1" d="M366.42,149.65c-.43-.16-.56-.44-.38-.84l3.82-8.94c.16-.33.41-.5.75-.5h.03c.35.02.58.18.71.5l3.88,8.94c.17.4.05.68-.37.84-.42.16-.72.04-.88-.35l-.87-2h-5l-.83,2c-.17.4-.45.51-.87.35ZM368.64,146.02h3.91l-2-4.62-1.92,4.62Z"/>
        <path class="cls-1" d="M366.74,149.85c-.11,0-.24-.03-.37-.08-.25-.09-.42-.23-.49-.41-.07-.17-.06-.37.04-.6l3.82-8.94c.18-.39.48-.58.87-.58h.03c.41.02.68.21.82.58l3.88,8.93c.1.23.11.43.04.6-.07.17-.23.31-.48.4-.49.18-.85.04-1.04-.42l-.83-1.92h-4.83l-.79,1.92c-.14.33-.36.5-.66.5ZM370.63,139.5h-.03c-.29,0-.5.14-.64.43l-3.82,8.93c-.07.16-.08.3-.04.4.05.11.17.2.35.27h0c.35.14.57.05.71-.28l.86-2.07h5.16l.9,2.07c.14.33.36.42.72.28.18-.07.29-.16.33-.26.05-.11.03-.24-.04-.41l-3.88-8.93c-.11-.28-.3-.41-.6-.43ZM372.74,146.15h-4.29l2.1-5.06,2.19,5.06ZM368.82,145.9h3.54l-1.8-4.17-1.73,4.17Z"/>
      </g>
      <g>
        <path class="cls-1" d="M389.42,149.74c-.18.11-.34.14-.51.1-.16-.04-.3-.15-.41-.31l-2.49-3.93h-2.25v3.48c0,.43-.22.64-.67.64s-.67-.21-.67-.64v-9.06c0-.43.22-.64.67-.64h3.75c.98,0,1.73.25,2.25.74.52.5.78,1.21.78,2.14v.46c0,.81-.2,1.45-.59,1.93-.4.48-.97.78-1.72.9l2.1,3.33c.2.36.12.65-.26.87ZM383.77,144.32h3.08c.61,0,1.04-.12,1.3-.37s.38-.66.38-1.24v-.46c0-.57-.13-.98-.38-1.23-.26-.25-.69-.37-1.3-.37h-3.08v3.66Z"/>
        <path class="cls-1" d="M389.05,149.98c-.06,0-.11,0-.17-.02-.19-.05-.35-.17-.48-.36l-2.45-3.88h-2.05v3.35c0,.49-.28.77-.8.77s-.8-.27-.8-.77v-9.06c0-.49.28-.77.8-.77h3.75c1.01,0,1.79.26,2.34.78.54.52.82,1.27.82,2.23v.46c0,.83-.21,1.51-.62,2.01-.38.46-.92.77-1.61.91l2,3.17c.24.42.13.79-.3,1.04-.15.09-.29.13-.44.13ZM383.65,145.47h2.44l.04.06,2.49,3.93c.09.14.2.22.33.26.13.03.26,0,.41-.08h0c.32-.19.38-.41.21-.7l-2.2-3.49.19-.03c.71-.11,1.27-.4,1.64-.85.38-.45.57-1.08.57-1.85v-.46c0-.89-.25-1.58-.74-2.05-.5-.47-1.22-.71-2.16-.71h-3.75c-.38,0-.55.16-.55.52v9.06c0,.36.17.52.55.52s.55-.16.55-.52v-3.6ZM386.85,144.44h-3.2v-3.91h3.2c.64,0,1.11.14,1.39.41.28.27.42.71.42,1.32v.46c0,.61-.14,1.06-.42,1.33-.28.27-.75.4-1.39.4ZM383.9,144.19h2.95c.57,0,.98-.11,1.21-.33.23-.22.35-.6.35-1.14v-.46c0-.54-.12-.92-.35-1.14-.23-.22-.64-.33-1.21-.33h-2.95v3.41Z"/>
      </g>
      <g>
        <path class="cls-1" d="M400.47,149.71c-1.22,0-2.13-.28-2.71-.83s-.88-1.42-.88-2.58v-3.51c0-1.17.29-2.04.87-2.6.58-.56,1.48-.83,2.7-.82h1.94c1,0,1.77.2,2.3.59s.84,1.02.92,1.86c.03.21-.01.38-.13.49-.12.11-.29.17-.51.17-.41,0-.64-.21-.71-.64-.05-.47-.22-.78-.51-.95-.29-.16-.74-.24-1.37-.24h-1.94c-.57,0-1.01.06-1.34.18-.32.13-.55.35-.69.66-.14.31-.2.74-.2,1.29v3.51c0,.54.07.97.2,1.28.14.31.37.53.69.66.33.13.78.19,1.35.19h1.92c.63,0,1.08-.08,1.37-.25s.46-.48.51-.94c.06-.43.3-.64.71-.64.22,0,.4.06.51.17.12.11.16.27.13.49-.09.85-.39,1.48-.92,1.87s-1.3.59-2.3.59h-1.92Z"/>
        <path class="cls-1" d="M402.39,149.84h-1.92c-1.25,0-2.19-.29-2.8-.87-.61-.58-.92-1.48-.92-2.67v-3.51c0-1.2.31-2.11.91-2.69.59-.57,1.51-.85,2.73-.85h2c1.03,0,1.83.21,2.38.62.56.41.88,1.07.97,1.95.04.25-.02.45-.17.59-.14.13-.34.2-.6.2-.47,0-.76-.26-.83-.75-.05-.43-.2-.71-.45-.86-.27-.15-.71-.23-1.31-.23h-1.94c-.56,0-.98.05-1.29.17-.29.12-.5.31-.62.59-.13.3-.19.71-.19,1.24v3.51c0,.52.07.94.19,1.23.12.28.33.48.63.59.31.12.75.19,1.3.19h1.92c.6,0,1.04-.08,1.3-.23.25-.14.4-.43.45-.85.07-.49.36-.75.83-.75.26,0,.46.07.6.2.15.14.2.34.17.6-.09.88-.42,1.54-.97,1.95-.55.41-1.35.61-2.38.61ZM400.39,139.5c-1.15,0-2.01.26-2.56.79-.55.53-.84,1.37-.84,2.5v3.51c0,1.12.28,1.96.84,2.49.56.53,1.44.8,2.63.8h1.92c.97,0,1.72-.19,2.23-.56.5-.37.79-.97.87-1.78.03-.18,0-.3-.09-.38-.09-.09-.24-.13-.43-.13-.34,0-.53.17-.58.53-.06.5-.25.85-.57,1.03-.31.18-.78.26-1.43.26h-1.92c-.59,0-1.06-.07-1.39-.2-.36-.14-.61-.38-.76-.72-.14-.33-.22-.77-.22-1.33v-3.51c0-.56.07-1.01.21-1.34.15-.34.41-.59.76-.73.34-.13.8-.19,1.38-.19h1.94c.65,0,1.12.08,1.43.26.32.18.51.53.57,1.04.05.36.24.53.58.53.19,0,.33-.04.43-.13.09-.08.12-.21.09-.38-.08-.82-.38-1.41-.87-1.78-.5-.38-1.25-.57-2.23-.57h-2Z"/>
      </g>
      <g>
        <path class="cls-1" d="M413.91,149.71c-.18,0-.33-.06-.47-.19-.14-.13-.2-.28-.2-.45v-9.06c0-.17.07-.32.2-.45.14-.13.29-.19.47-.19s.33.06.47.19.2.28.2.45v3.83h6.54v-3.83c0-.17.07-.32.2-.45.13-.13.29-.19.47-.19s.33.06.47.19c.14.13.2.28.2.45v9.06c0,.17-.07.32-.2.45-.14.13-.29.19-.47.19s-.34-.06-.47-.19c-.13-.13-.2-.28-.2-.45v-3.95h-6.54v3.95c0,.17-.07.32-.2.45s-.29.19-.47.19Z"/>
        <path class="cls-1" d="M421.8,149.84c-.22,0-.4-.08-.56-.23-.16-.15-.24-.33-.24-.54v-3.82h-6.29v3.82c0,.2-.08.38-.24.54-.32.3-.79.3-1.11,0-.16-.15-.24-.33-.24-.54v-9.06c0-.2.08-.38.24-.54.32-.3.79-.3,1.11,0,.16.15.24.33.24.54v3.7h6.29v-3.7c0-.2.08-.38.24-.54.31-.3.79-.31,1.12,0,.16.15.24.33.24.54v9.06c0,.2-.08.38-.24.54-.16.15-.35.23-.55.23ZM414.46,145h6.79v4.07c0,.13.05.25.16.36.22.21.54.22.77,0,.11-.11.17-.22.17-.36v-9.06c0-.13-.05-.25-.17-.36-.23-.22-.55-.21-.77,0-.11.11-.16.22-.16.36v3.95h-6.79v-3.95c0-.13-.05-.25-.17-.36-.23-.21-.54-.21-.77,0-.11.11-.17.22-.17.36v9.06c0,.13.05.25.17.36.23.21.54.21.77,0,.11-.11.17-.22.17-.36v-4.07Z"/>
      </g>
      <g>
        <path class="cls-1" d="M431.3,149.71c-.23,0-.4-.05-.51-.16s-.16-.27-.16-.48v-9.04c0-.22.06-.39.16-.49s.28-.15.51-.15.41.05.51.15.16.26.16.49v9.04c0,.22-.05.38-.16.48s-.28.16-.51.16Z"/>
        <path class="cls-1" d="M431.3,149.84c-.26,0-.46-.06-.6-.19-.13-.13-.2-.32-.2-.58v-9.04c0-.26.07-.45.2-.58.13-.12.33-.19.59-.19s.47.06.6.19c.13.13.2.32.2.58v9.04c0,.25-.07.45-.2.57-.13.13-.33.19-.6.19ZM431.3,139.52c-.2,0-.34.04-.42.12-.08.08-.12.21-.12.4v9.04c0,.18.04.31.13.39.08.08.23.12.42.12s.34-.04.43-.12c.08-.08.12-.21.12-.39v-9.04c0-.19-.04-.32-.12-.4-.08-.08-.23-.12-.43-.12Z"/>
      </g>
      <g>
        <path class="cls-1" d="M443.38,149.71c-.22,0-.39-.05-.51-.16s-.17-.27-.17-.48v-8.4h-3.11c-.22,0-.39-.05-.5-.16s-.17-.27-.17-.48.06-.37.17-.48c.11-.11.28-.16.5-.16h7.57c.22,0,.39.05.51.16.11.11.17.27.17.48s-.06.37-.17.48-.28.16-.51.16h-3.11v8.4c0,.2-.06.36-.17.47-.12.11-.28.17-.5.17Z"/>
        <path class="cls-1" d="M443.38,149.84c-.26,0-.46-.07-.59-.19-.14-.13-.21-.32-.21-.57v-8.28h-2.99c-.26,0-.45-.07-.59-.19-.14-.13-.21-.32-.21-.57s.07-.44.21-.57c.13-.13.33-.19.59-.19h7.57c.26,0,.46.07.59.19.14.13.21.32.21.57s-.07.44-.21.57c-.14.13-.33.19-.59.19h-2.99v8.28c0,.24-.07.43-.21.56-.14.13-.34.2-.59.2ZM439.59,139.52c-.19,0-.33.04-.42.12-.09.08-.13.21-.13.39s.04.31.13.39c.09.08.23.13.42.13h3.24v8.53c0,.18.04.31.13.39.09.08.23.13.42.13s.32-.04.41-.13c.09-.09.13-.21.13-.38v-8.53h3.24c.19,0,.33-.04.42-.13.09-.08.13-.21.13-.39s-.04-.31-.13-.39c-.09-.08-.23-.13-.42-.13h-7.57Z"/>
      </g>
      <g>
        <path class="cls-1" d="M455.45,149.71c-.45,0-.67-.21-.67-.64v-9.06c0-.43.22-.64.67-.64h5.76c.45,0,.67.21.67.64s-.22.64-.67.64h-5.08v3.2h3.19c.45,0,.67.21.67.64s-.22.64-.67.64h-3.19v3.29h5.08c.45,0,.67.21.67.64s-.22.64-.67.64h-5.76Z"/>
        <path class="cls-1" d="M461.21,149.84h-5.76c-.51,0-.8-.27-.8-.77v-9.06c0-.49.28-.77.8-.77h5.76c.51,0,.8.27.8.77s-.28.76-.8.76h-4.96v2.95h3.07c.51,0,.8.27.8.77s-.28.77-.8.77h-3.07v3.04h4.96c.51,0,.8.27.8.77s-.28.77-.8.77ZM455.45,139.5c-.38,0-.55.16-.55.52v9.06c0,.36.17.52.55.52h5.76c.38,0,.55-.16.55-.52s-.17-.52-.55-.52h-5.21v-3.54h3.32c.38,0,.55-.16.55-.52s-.17-.52-.55-.52h-3.32v-3.45h5.21c.38,0,.55-.16.55-.51s-.17-.52-.55-.52h-5.76Z"/>
      </g>
      <g>
        <path class="cls-1" d="M472.15,149.71c-1.22,0-2.13-.28-2.71-.83-.58-.56-.88-1.42-.88-2.58v-3.51c0-1.17.29-2.04.87-2.6s1.48-.83,2.7-.82h1.94c1.01,0,1.77.2,2.3.59s.84,1.02.92,1.86c.03.21-.01.38-.13.49-.12.11-.29.17-.51.17-.41,0-.64-.21-.71-.64-.05-.47-.22-.78-.51-.95-.29-.16-.74-.24-1.37-.24h-1.94c-.57,0-1.01.06-1.34.18-.32.13-.55.35-.69.66-.14.31-.2.74-.2,1.29v3.51c0,.54.07.97.2,1.28.14.31.37.53.69.66.33.13.77.19,1.35.19h1.92c.63,0,1.08-.08,1.37-.25.29-.17.46-.48.51-.94.06-.43.3-.64.71-.64.22,0,.4.06.51.17.12.11.16.27.13.49-.09.85-.39,1.48-.92,1.87s-1.3.59-2.3.59h-1.92Z"/>
        <path class="cls-1" d="M474.08,149.84h-1.92c-1.25,0-2.19-.29-2.8-.87-.61-.58-.92-1.48-.92-2.67v-3.51c0-1.2.31-2.11.91-2.69.59-.57,1.51-.85,2.73-.85h2c1.03,0,1.83.21,2.38.62.56.41.88,1.07.97,1.95.04.25-.02.45-.17.59-.14.13-.34.2-.6.2-.47,0-.76-.26-.83-.75-.05-.43-.2-.71-.45-.86-.27-.15-.71-.23-1.31-.23h-1.94c-.55,0-.98.05-1.29.17-.29.12-.5.31-.62.59-.13.3-.19.71-.19,1.24v3.51c0,.52.07.94.19,1.23.12.28.33.48.63.59.31.12.75.19,1.3.19h1.92c.6,0,1.04-.08,1.31-.23.25-.14.4-.43.45-.85.07-.49.36-.75.83-.75.26,0,.46.07.6.2.15.14.2.34.17.6-.09.88-.42,1.54-.97,1.95-.55.41-1.35.61-2.38.61ZM472.07,139.5c-1.15,0-2.01.26-2.56.79-.55.53-.83,1.37-.83,2.5v3.51c0,1.12.28,1.96.84,2.49.56.53,1.44.8,2.63.8h1.92c.97,0,1.72-.19,2.23-.56.5-.37.79-.97.87-1.78.03-.18,0-.3-.09-.38-.09-.09-.24-.13-.43-.13-.34,0-.53.17-.58.53-.06.5-.25.85-.57,1.03-.31.18-.78.26-1.43.26h-1.92c-.59,0-1.06-.07-1.39-.2-.36-.14-.61-.38-.76-.72-.14-.33-.21-.77-.21-1.33v-3.51c0-.56.07-1.01.21-1.34.15-.34.4-.59.76-.73.34-.13.8-.19,1.38-.19h1.94c.65,0,1.12.08,1.43.26.32.18.51.53.57,1.04.05.36.24.53.58.53.19,0,.33-.04.43-.13.09-.08.12-.21.09-.38-.08-.81-.38-1.41-.87-1.78-.51-.38-1.25-.57-2.23-.57h-2Z"/>
      </g>
      <g>
        <path class="cls-1" d="M488.18,149.71c-.22,0-.39-.05-.51-.16s-.17-.27-.17-.48v-8.4h-3.11c-.22,0-.39-.05-.5-.16s-.17-.27-.17-.48.06-.37.17-.48c.11-.11.28-.16.5-.16h7.57c.22,0,.39.05.5.16.11.11.17.27.17.48s-.06.37-.17.48-.28.16-.5.16h-3.11v8.4c0,.2-.06.36-.17.47-.12.11-.28.17-.5.17Z"/>
        <path class="cls-1" d="M488.18,149.84c-.26,0-.46-.07-.59-.19-.14-.13-.21-.32-.21-.57v-8.28h-2.99c-.26,0-.46-.07-.59-.19-.14-.13-.21-.32-.21-.57s.07-.44.21-.57c.13-.13.33-.19.59-.19h7.57c.26,0,.46.07.59.19.14.13.21.32.21.57s-.07.44-.21.57c-.14.13-.33.19-.59.19h-2.99v8.28c0,.24-.07.43-.21.56-.14.13-.34.2-.59.2ZM484.39,139.52c-.19,0-.33.04-.42.12-.09.08-.13.21-.13.39s.04.31.13.39c.09.08.23.13.42.13h3.24v8.53c0,.18.04.31.13.39.09.08.23.13.42.13s.32-.04.41-.13c.09-.09.13-.21.13-.38v-8.53h3.24c.19,0,.33-.04.42-.13.09-.08.13-.21.13-.39s-.04-.31-.13-.39c-.09-.08-.23-.13-.42-.13h-7.57Z"/>
      </g>
      <g>
        <path class="cls-1" d="M502.3,149.71c-.91,0-1.63-.18-2.14-.53-.51-.35-.83-.89-.96-1.62-.02-.22.03-.39.14-.5.12-.11.29-.17.51-.17s.39.05.49.15.17.26.21.47c.08.35.25.59.52.72.26.13.67.19,1.21.19h2.31c.69,0,1.16-.12,1.41-.35.25-.24.37-.68.37-1.32s-.13-1.1-.38-1.35c-.26-.24-.72-.36-1.4-.36h-1.99c-1.01,0-1.76-.23-2.25-.71-.49-.47-.73-1.19-.73-2.15s.24-1.66.73-2.13c.48-.46,1.23-.69,2.24-.69h1.91c.85,0,1.52.17,2,.5.48.33.79.84.92,1.52.03.22-.01.38-.13.5-.12.11-.29.17-.53.17-.21,0-.37-.05-.48-.16-.11-.11-.18-.26-.21-.46-.09-.3-.25-.5-.49-.61-.24-.11-.6-.16-1.08-.16h-1.91c-.64,0-1.07.11-1.29.32-.22.22-.33.62-.33,1.22s.11,1.01.34,1.24.66.34,1.3.34h1.99c1.05,0,1.84.24,2.35.73s.77,1.24.77,2.26-.26,1.76-.77,2.24-1.3.72-2.36.72h-2.31Z"/>
        <path class="cls-1" d="M504.61,149.84h-2.31c-.94,0-1.68-.18-2.21-.55-.54-.37-.88-.94-1.01-1.71-.03-.27.04-.47.18-.61.14-.13.34-.2.6-.2s.45.06.58.19c.12.12.21.3.25.54.07.31.22.52.45.63.25.12.64.18,1.16.18h2.31c.65,0,1.1-.11,1.32-.32.22-.21.33-.62.33-1.23s-.12-1.04-.35-1.25c-.23-.22-.67-.33-1.31-.33h-1.99c-1.04,0-1.83-.25-2.34-.74-.51-.49-.77-1.24-.77-2.24s.26-1.73.76-2.22c.5-.48,1.29-.73,2.33-.73h1.91c.87,0,1.57.17,2.07.52.51.35.84.89.97,1.6.04.26-.02.47-.16.61-.14.14-.35.21-.62.21-.25,0-.44-.07-.57-.2-.12-.12-.21-.3-.24-.53-.07-.25-.21-.43-.42-.52-.22-.1-.57-.15-1.03-.15h-1.91c-.6,0-1.01.1-1.2.29-.19.19-.29.57-.29,1.13s.1.95.3,1.15c.2.2.61.3,1.21.3h1.99c1.08,0,1.9.26,2.44.77.54.51.81,1.3.81,2.35s-.27,1.83-.81,2.33c-.54.5-1.36.75-2.44.75ZM499.86,147.02c-.19,0-.33.04-.43.13-.09.08-.12.22-.11.4.12.68.43,1.2.91,1.53.49.33,1.18.5,2.07.5h2.31c1.02,0,1.79-.23,2.27-.69.48-.45.73-1.18.73-2.15s-.25-1.71-.73-2.17c-.49-.46-1.25-.7-2.27-.7h-1.99c-.68,0-1.14-.12-1.39-.37-.25-.25-.37-.68-.37-1.32s.12-1.06.37-1.3c.25-.24.7-.36,1.38-.36h1.91c.5,0,.88.06,1.13.17.27.12.46.36.56.69.03.19.09.32.18.41.08.08.21.12.39.12.2,0,.35-.05.44-.14.09-.08.12-.21.09-.39-.12-.64-.41-1.12-.86-1.43-.46-.31-1.11-.47-1.93-.47h-1.91c-.97,0-1.7.22-2.16.66-.46.44-.69,1.12-.69,2.04s.23,1.61.7,2.06c.46.44,1.19.67,2.16.67h1.99c.71,0,1.2.13,1.48.4.28.26.42.75.42,1.44s-.13,1.15-.41,1.41c-.28.26-.76.39-1.49.39h-2.31c-.57,0-.99-.07-1.27-.21-.3-.15-.5-.42-.58-.8-.03-.19-.09-.33-.18-.41-.08-.08-.22-.12-.41-.12Z"/>
      </g>
    </g>
    <path class="cls-1" d="M308.35,25.15c1.1-7.68-3.81-14.6-11.63-15.45h-52.77s0,54.11,0,54.11h52.81c8.03-.98,12.34-7.9,11.79-15.61-.3-4.23-.02-8.15-3.46-11.53,3.41-3.55,3.55-7.43,3.26-11.52ZM295.59,18.28c2.57,0,4.28,2.18,4.27,4.5l-.02,5.1c-.01,2.51-1.85,4.67-4.32,4.67l-42.87.02-.13-14.31,43.08.02ZM296.19,55.19l-43.65.03v-14.04h43.09c2.45,0,4.16,1.75,4.19,4.12l.07,5.2c.03,1.85-1.46,4.69-3.7,4.69Z"/>
    <path class="cls-1" d="M497.72,32.56l-40.26-.02c-2.46,0-4.27-2.17-4.29-4.44l-.05-5.33c-.02-2.33,1.7-4.48,4.27-4.48h39.12c2.2,0,3.6,1.95,4.05,4.23l8.49-.07c-.21-7.49-5.93-12.76-13.09-12.76h-39.72c-7.75.85-12.79,7.77-11.55,15.46-1.46,8.58,4.57,16,13.3,16l39.14.04c1.83,0,3.34,2.56,3.33,4.02l-.05,5.79c-.02,2.43-1.98,4.21-4.44,4.21l-39.23-.03c-2.04,0-3.21-2.66-3.87-4.16l-8.34-.02c.16,6.32,5.05,12.65,11.65,12.67l41.74.12c7.68-1.4,12.11-8.18,10.98-15.59,1.24-7.64-3.46-14.59-11.19-15.65Z"/>
    <polygon class="cls-1" points="73.46 49.56 53.34 9.78 48.05 9.81 28.07 49.68 9.38 9.76 0 9.91 25.16 63.74 30.6 63.76 50.78 23.75 70.81 63.74 76.34 63.79 101.62 9.77 92.06 9.88 73.46 49.56"/>
    <path class="cls-1" d="M239.01,48.06v-22.35c-.68-8.95-7.91-15.83-16.97-15.99h-47.49s-.01,54.11-.01,54.11h48.1c8.58-.44,15.46-7.02,16.37-15.77ZM183.14,55.23V18.28s38.88,0,38.88,0c4.9.24,8.52,4.03,8.41,8.84v19.53c-.09,4.59-3.43,8.01-7.82,8.58h-39.47Z"/>
    <path class="cls-1" d="M329.03,63.74l33.32-.02c8.46,0,15.46-8.04,15.45-15.93v-21.97c0-8.53-7.77-15.93-16.35-15.96l-30.71-.08c-8.92-.02-17.21,6.85-17.21,16.01v22.08c-.01,8.04,7.27,15.88,15.49,15.87ZM322.02,26.93c0-4.52,3.54-8.55,8.23-8.55l31.16.03c4.1,0,7.87,4.02,7.87,7.96v20.75c0,4.11-3.38,7.52-7.55,8.18h-30.93c-4.92.01-8.78-3.75-8.78-8.7v-19.67Z"/>
    <polygon class="cls-1" points="433.88 9.82 409.67 31.13 385.42 9.77 372.58 9.88 405.39 38.75 409.65 90.6 414.05 38.75 446.73 9.99 433.88 9.82"/>
    <polygon class="cls-1" points="169.55 55.2 128.68 55.21 128.69 9.7 120.1 9.7 120.09 63.81 169.6 63.81 169.55 55.2"/>
    <rect class="cls-1" x="106.56" y="9.71" width="8.59" height="54.13"/>
    <path class="cls-1" d="M308.15,83.48c.27-7.75-3.81-14.6-11.63-15.45l-40.43.24v54.12s40.48-.25,40.48-.25c8.03-.98,12.34-7.91,11.79-15.61-.3-4.23-.02-8.15-3.46-11.53,3.41-3.55,3.12-7.42,3.26-11.52ZM295.4,76.6c2.57,0,4.28,2.18,4.27,4.5l-.02,5.1c-.01,2.51-1.85,4.67-4.32,4.67h-30.09s-.13-14.29-.13-14.29l30.3.03ZM296,113.52l-30.87.02v-14.04h30.31c2.45,0,4.16,1.76,4.19,4.13l.07,5.2c.03,1.85-1.46,4.69-3.7,4.69Z"/>
    <polygon class="cls-1" points="366.66 99.52 366.66 90.76 322.02 91.15 322.02 76.85 383.62 76.85 377.79 68.29 313.53 68.28 313.53 122.4 377.82 122.4 384.98 113.8 322.02 114.07 322.02 100.02 366.66 99.52"/>
    <rect class="cls-1" x="243.25" y="68.15" width="8.61" height="54.13"/>
    <path class="cls-1" d="M520.34,0c-6.21,0-11.24,5.03-11.24,11.24s5.03,11.24,11.24,11.24,11.24-5.03,11.24-11.24-5.03-11.24-11.24-11.24ZM520.34,21.18c-5.49,0-9.94-4.45-9.94-9.94s4.45-9.94,9.94-9.94,9.94,4.45,9.94,9.94-4.45,9.94-9.94,9.94Z"/>
    <polygon class="cls-1" points="523.63 10.99 521.74 7.99 520.2 8 520.2 14.48 521.77 14.48 521.77 10.64 522.1 11.15 523.12 12.77 524.12 12.77 525.47 10.56 525.49 14.48 527.06 14.47 527.06 7.99 525.51 7.99 523.63 10.99"/>
    <polygon class="cls-1" points="513.64 9.44 515.66 9.45 515.66 14.48 517.36 14.48 517.36 9.44 519.39 9.44 519.4 7.99 513.64 7.99 513.64 9.44"/>
    <path class="cls-1" d="M235.59,98.6c1.74-2.46,3.19-5.32,3.19-8.44l-.07-10.5c-.87-6.52-6.19-11.37-12.93-11.37h-51.51s-54.18.11-54.18.11v8.57s18.49-.12,18.49-.12v45.54s8.59-.08,8.59-.08v-45.47s27.16.02,27.16.02l52.02-.03c2.03.33,3.8,2.17,3.8,4.2l-.04,9.16c0,2.03-1.88,3.8-3.73,4.06h-43.49l-.04-13.61h-8.58v41.71l8.58.04.04-19.55,42.87.04c2.64,0,4.42,2.14,4.42,4.6l-.04,14.92,8.62-.04-.07-16.19c0-2.68-1.48-5.43-3.11-7.57Z"/>
  </g>
</svg>